<?xml version="1.0" encoding="UTF-8"?>
<svg width="80px" height="80px" viewBox="0 0 80 80" version="1.1" xmlns="http://www.w3.org/2000/svg" xmlns:xlink="http://www.w3.org/1999/xlink">
    <!-- Generator: Sketch 49.2 (51160) - http://www.bohemiancoding.com/sketch -->
    <title>ic/dark/sound-off/normal</title>
    <desc>Created with Sketch.</desc>
    <defs>
        <path d="M18,16 L63.0458901,63.1678552" id="path-1"></path>
        <filter x="-13.3%" y="-8.5%" width="122.2%" height="125.4%" filterUnits="objectBoundingBox" id="filter-2">
            <feMorphology radius="2" operator="dilate" in="SourceAlpha" result="shadowSpreadOuter1"></feMorphology>
            <feOffset dx="-2" dy="4" in="shadowSpreadOuter1" result="shadowOffsetOuter1"></feOffset>
            <feMorphology radius="2" operator="erode" in="SourceAlpha" result="shadowInner"></feMorphology>
            <feOffset dx="-2" dy="4" in="shadowInner" result="shadowInner"></feOffset>
            <feComposite in="shadowOffsetOuter1" in2="shadowInner" operator="out" result="shadowOffsetOuter1"></feComposite>
            <feColorMatrix values="0 0 0 0 0   0 0 0 0 0   0 0 0 0 0  0 0 0 0.7 0" type="matrix" in="shadowOffsetOuter1"></feColorMatrix>
        </filter>
    </defs>
    <g id="ic/dark/sound-off/normal" stroke="none" stroke-width="1" fill="none" fill-rule="evenodd">
        <circle id="Oval-2" fill-opacity="0.7" fill="#000000" cx="40" cy="40" r="40"></circle>
        <g id="Group" transform="translate(44.000000, 18.000000)" fill="#FFFFFF" fill-rule="nonzero" stroke="#FFFFFF">
            <path d="M10.4285976,30.2080533 C11.9005442,27.78512 12.7048642,24.9697067 12.7042776,21.9536533 C12.7031042,15.05856 8.49787758,9.21770667 1.72950425,6.70970667 C1.53825092,6.63872 1.35697092,6.60293333 1.19094425,6.60293333 C0.735690915,6.60293333 0.405984249,6.89685333 0.210624249,7.27642667 C0.125557582,7.44128 0.0627842487,7.61962667 0.030517582,7.80090667 C-0.087402418,8.45797333 0.112064249,9.34912 1.05953092,9.69994667 C6.43046425,11.6905067 9.76742425,16.3867733 9.76801092,21.9571733 C9.76801092,23.98176 9.32214425,25.8884267 8.50374425,27.5944533 C7.07051758,30.5794133 4.48273092,32.94368 1.06715758,34.21088 C0.474037582,34.4314667 0.174250915,34.8632533 0.0610242487,35.3173333 C-0.00644241796,35.5895467 -0.00702908462,35.8688 0.037557582,36.1157867 C0.144330915,36.7094933 0.542677582,37.3096533 1.19505092,37.3096533 C1.36107758,37.3096533 1.54353092,37.27328 1.73419758,37.2017067 C5.54107758,35.7901867 8.53659758,33.3232533 10.4285976,30.2080533 Z" id="Shape"></path>
            <path d="M4.35953092,0.106773333 C4.16827758,0.0357866667 3.98699758,0 3.82097092,0 C3.16683758,0 2.76673092,0.60016 2.65995758,1.19562667 C2.54203758,1.85269333 2.74150425,2.74501333 3.69014425,3.09642667 C11.9756376,6.16645333 17.1248109,13.3924267 17.1271576,21.95424 C17.1295042,30.5154667 11.9844376,37.7432 3.70129092,40.8167467 C2.75382425,41.1693333 2.55435758,42.0610667 2.67227758,42.7175467 C2.77905092,43.3136 3.17857092,43.91376 3.83094425,43.91376 C3.99697092,43.91376 4.17825092,43.8773867 4.36950425,43.8058133 C14.0518509,40.2118933 20.0651842,31.8378133 20.0616642,21.94896 C20.0581442,12.0642133 14.0418776,3.69424 4.35953092,0.106773333 Z" id="Shape"></path>
        </g>
        <path d="M23.9997815,31.8795136 L23.4733122,32.2631784 L14,32.2631784 L14,50.2631784 L23.4733165,50.2631784 L23.9997815,50.6468332 C23.9998261,50.6468656 23.9998957,50.646913 24,50.6469793 L38,59.541367 L38,22.9849797 L24,31.8793674 C23.9998957,31.8794337 23.999826,31.8794811 23.9997815,31.8795136 Z" id="Combined-Shape" stroke="#FFFFFF" stroke-width="4"></path>
        <g id="Path-7" stroke-linecap="round">
            <use fill="black" fill-opacity="1" filter="url(#filter-2)" xlink:href="#path-1"></use>
            <use stroke="#FFFFFF" stroke-width="4" xlink:href="#path-1"></use>
        </g>
    </g>
</svg>