<?xml version="1.0" encoding="utf-8"?>
<!-- Generator: Adobe Illustrator 13.0.1, SVG Export Plug-In . SVG Version: 6.00 Build 14948)  -->
<!DOCTYPE svg PUBLIC "-//W3C//DTD SVG 1.1//EN" "http://www.w3.org/Graphics/SVG/1.1/DTD/svg11.dtd">
<svg version="1.1" id="圖層_1" xmlns="http://www.w3.org/2000/svg" xmlns:xlink="http://www.w3.org/1999/xlink" x="0px" y="0px"
	 width="276.021px" height="106.182px" viewBox="0 0 276.021 106.182" enable-background="new 0 0 276.021 106.182"
	 xml:space="preserve">
<path fill-rule="evenodd" clip-rule="evenodd" fill="#F29C1F" d="M276.021,94.098c0,6.674-5.41,12.084-12.084,12.084H12.084
	C5.41,106.182,0,100.771,0,94.098V12.084C0,5.41,5.41,0,12.084,0h251.854c6.674,0,12.084,5.41,12.084,12.084V94.098z M45.071,16.527
	H29.659L55.128,52.49L28.565,89.654H43.76l11.423-16.341c2.696-3.862,5.282-7.652,7.761-11.368h0.22
	c2.367,3.571,4.954,7.359,7.76,11.368l11.423,16.341H97.54L70.978,52.49l25.47-35.963H81.033L70.596,31.611
	c-2.951,4.264-5.411,7.926-7.379,10.986h-0.273c-1.421-2.223-3.899-5.903-7.433-11.04L45.071,16.527z M144.651,70.034
	c-1.858-6.669-3.845-12.899-5.957-18.692l-12.625-34.814h-18.691v73.127h13.39V52.545c0-5.83-0.219-12.115-0.655-18.856h0.491
	c0.619,2.077,1.348,4.409,2.187,6.996c0.838,2.587,1.712,5.138,2.623,7.651l15.14,41.318h8.635l15.14-41.318
	c0.91-2.514,1.785-5.064,2.623-7.651c0.839-2.587,1.566-4.919,2.186-6.996h0.492c-0.437,7.179-0.655,13.481-0.655,18.911v37.055
	h13.39V16.527h-18.8l-12.626,34.979c-2.368,6.595-4.354,12.771-5.957,18.528H144.651z M199.853,16.527v73.127h47.603V78.451h-34.213
	V16.527H199.853z"/>
</svg>
