<?xml version="1.0" encoding="UTF-8" standalone="no"?>
<!-- Generator: Adobe Illustrator 13.0.1, SVG Export Plug-In . SVG Version: 6.00 Build 14948)  -->

<svg
   xmlns:dc="http://purl.org/dc/elements/1.1/"
   xmlns:cc="http://creativecommons.org/ns#"
   xmlns:rdf="http://www.w3.org/1999/02/22-rdf-syntax-ns#"
   xmlns:svg="http://www.w3.org/2000/svg"
   xmlns="http://www.w3.org/2000/svg"
   xmlns:sodipodi="http://sodipodi.sourceforge.net/DTD/sodipodi-0.dtd"
   xmlns:inkscape="http://www.inkscape.org/namespaces/inkscape"
   version="1.1"
   id="Capa_1"
   x="0px"
   y="0px"
   width="100"
   height="100"
   viewBox="0 0 100 100"
   enable-background="new 0 0 700 100"
   xml:space="preserve"
   inkscape:version="0.48.4 r9939"
   sodipodi:docname="video.svg"><metadata
   id="metadata3011"><rdf:RDF><cc:Work
       rdf:about=""><dc:format>image/svg+xml</dc:format><dc:type
         rdf:resource="http://purl.org/dc/dcmitype/StillImage" /><dc:title /></cc:Work></rdf:RDF></metadata><defs
   id="defs3009" /><sodipodi:namedview
   pagecolor="#ffffff"
   bordercolor="#666666"
   borderopacity="1"
   objecttolerance="10"
   gridtolerance="10"
   guidetolerance="10"
   inkscape:pageopacity="0"
   inkscape:pageshadow="2"
   inkscape:window-width="1099"
   inkscape:window-height="762"
   id="namedview3007"
   showgrid="false"
   inkscape:zoom="2.3306122"
   inkscape:cx="-0.70490478"
   inkscape:cy="36.164623"
   inkscape:window-x="0"
   inkscape:window-y="30"
   inkscape:window-maximized="0"
   inkscape:current-layer="Capa_1" />
<path
   d="m 93.136851,25.185253 c -0.517047,-0.282188 -1.086781,-0.422389 -1.655622,-0.422389 -0.650997,0 -1.301101,0.183958 -1.868156,0.547409 L 71.338725,36.449555 v -6.373341 c 0,-3.067455 -2.487005,-5.553567 -5.553567,-5.553567 H 11.188031 c -3.067455,0 -5.5535671,2.486112 -5.5535671,5.553567 v 42.300517 c 0,3.067455 2.4861121,5.55446 5.5535671,5.55446 h 54.597127 c 3.066562,0 5.553567,-2.487005 5.553567,-5.55446 V 66.002497 L 89.61218,77.141779 c 0.567055,0.363451 1.215373,0.546516 1.867263,0.546516 0.567948,0 1.138575,-0.140201 1.656515,-0.422389 1.108213,-0.605454 1.798502,-1.769033 1.798502,-3.033521 V 28.22056 c 8.93e-4,-1.264488 -0.689396,-2.42896 -1.797609,-3.035307 z"
   id="path3005"
   inkscape:connector-curvature="0"
   style="fill:#a0a0a0;fill-opacity:1" />
</svg>