<svg id="圖層_1" data-name="圖層 1" xmlns="http://www.w3.org/2000/svg" viewBox="0 0 102.16 102.16"><defs><style>.cls-1{fill:#55acee;fill-rule:evenodd;}</style></defs><title>未命名-1</title><path class="cls-1" d="M103.91,43.15A51.08,51.08,0,1,1,52.84-7.93,51.07,51.07,0,0,1,103.91,43.15ZM84.12,28.78a24.58,24.58,0,0,1-7,1.92,12.27,12.27,0,0,0,5.37-6.76,24.55,24.55,0,0,1-7.76,3A12.21,12.21,0,0,0,53.92,38,34.65,34.65,0,0,1,28.75,25.29a12.23,12.23,0,0,0,3.78,16.3A12.19,12.19,0,0,1,27,40.06v.15a12.21,12.21,0,0,0,9.79,12,12.13,12.13,0,0,1-3.21.43,12.45,12.45,0,0,1-2.3-.21,12.2,12.2,0,0,0,11.41,8.47A24.49,24.49,0,0,1,27.52,66.1a25.41,25.41,0,0,1-2.91-.17,34.5,34.5,0,0,0,18.71,5.49c22.46,0,34.74-18.61,34.74-34.74,0-.53,0-1.06,0-1.58a24.56,24.56,0,0,0,6.09-6.32Z" transform="translate(-1.76 7.93)"/></svg>