<?xml version="1.0" encoding="utf-8"?>
<!-- Generator: Adobe Illustrator 22.1.0, SVG Export Plug-In . SVG Version: 6.00 Build 0)  -->
<svg version="1.1"
	 id="Capa_1" inkscape:version="0.48.4 r9939" sodipodi:docname="video.svg" xmlns:cc="http://creativecommons.org/ns#" xmlns:dc="http://purl.org/dc/elements/1.1/" xmlns:inkscape="http://www.inkscape.org/namespaces/inkscape" xmlns:rdf="http://www.w3.org/1999/02/22-rdf-syntax-ns#" xmlns:sodipodi="http://sodipodi.sourceforge.net/DTD/sodipodi-0.dtd" xmlns:svg="http://www.w3.org/2000/svg"
	 xmlns="http://www.w3.org/2000/svg" xmlns:xlink="http://www.w3.org/1999/xlink" x="0px" y="0px" viewBox="0 0 100 100"
	 style="enable-background:new 0 0 100 100;" xml:space="preserve">
<style type="text/css">
	.st0{fill:#999999;}
</style>
<sodipodi:namedview  bordercolor="#666666" borderopacity="1" gridtolerance="10" guidetolerance="10" id="namedview3007" inkscape:current-layer="Capa_1" inkscape:cx="72.880911" inkscape:cy="36.164623" inkscape:pageopacity="0" inkscape:pageshadow="2" inkscape:window-height="762" inkscape:window-maximized="0" inkscape:window-width="1099" inkscape:window-x="0" inkscape:window-y="30" inkscape:zoom="2.3306122" objecttolerance="10" pagecolor="#ffffff" showgrid="false">
	</sodipodi:namedview>
<path id="path3005" inkscape:connector-curvature="0" class="st0" d="M93.1,25.2c-0.5-0.3-1.1-0.4-1.7-0.4c-0.7,0-1.3,0.2-1.9,0.5
	L71.3,36.4v-6.4c0-3.1-2.5-5.6-5.6-5.6H11.2c-3.1,0-5.6,2.5-5.6,5.6v42.3c0,3.1,2.5,5.6,5.6,5.6h54.6c3.1,0,5.6-2.5,5.6-5.6V66
	l18.3,11.1c0.6,0.4,1.2,0.5,1.9,0.5c0.6,0,1.1-0.1,1.7-0.4c1.1-0.6,1.8-1.8,1.8-3v-46C94.9,27,94.2,25.8,93.1,25.2z"/>
</svg>
