<svg id="圖層_1" data-name="圖層 1" xmlns="http://www.w3.org/2000/svg" viewBox="0 0 72.95 25.54"><defs><style>.cls-1{fill:#555;}</style></defs><title>未命名-1</title><path id="line" class="cls-1" d="M26.25,50.27a1,1,0,0,0,1-1V25.7a1,1,0,0,0-1-1H22.54a1,1,0,0,0-1,1V49.3a1,1,0,0,0,1,1Zm22.23,0a1.07,1.07,0,0,1-.25,0l-.08,0h0l0,0a.05.05,0,0,1,0,0h0l-.06,0a.89.89,0,0,1-.26-.25l-11-14.78V49.3a1,1,0,0,1-1,1H32a1,1,0,0,1-1-1V25.7a1,1,0,0,1,1-1h4l.06,0h0l.06,0,0,0,0,0h0l0,0,0,0,.05,0,0,0,.05.06.09.1,11,14.92V25.7a1,1,0,0,1,1-1h3.72a1,1,0,0,1,1,1V49.3a1,1,0,0,1-1,1ZM2,50.27A.94.94,0,0,1,1.37,50h0l0,0a1,1,0,0,1-.27-.67V25.7a1,1,0,0,1,1-1H5.76a1,1,0,0,1,1,1V44.61H17.08a1,1,0,0,1,1,1V49.3a1,1,0,0,1-1,1Zm56,0a.94.94,0,0,1-.67-.27h0v0a.94.94,0,0,1-.27-.67V25.7a.94.94,0,0,1,.27-.67h0v0a1,1,0,0,1,.68-.27h15a1,1,0,0,1,1,1v3.72a1,1,0,0,1-1,1H62.71v4.28H73.05a1,1,0,0,1,1,1v3.72a1,1,0,0,1-1,1H62.71v4.28H73.05a1,1,0,0,1,1,1V49.3a1,1,0,0,1-1,1Z" transform="translate(-1.07 -24.73)"/></svg>