<?xml version="1.0" encoding="utf-8"?>
<!-- Generator: Adobe Illustrator 13.0.1, SVG Export Plug-In . SVG Version: 6.00 Build 14948)  -->
<!DOCTYPE svg PUBLIC "-//W3C//DTD SVG 1.1//EN" "http://www.w3.org/Graphics/SVG/1.1/DTD/svg11.dtd">
<svg version="1.1" id="圖層_1" xmlns="http://www.w3.org/2000/svg" xmlns:xlink="http://www.w3.org/1999/xlink" x="0px" y="0px"
	 width="99.91px" height="99.859px" viewBox="0 0 99.91 99.859" enable-background="new 0 0 99.91 99.859" xml:space="preserve">
<path fill="#FFFFFF" d="M75.417,0.587c0.756,0.819,1.133,1.766,1.133,2.774v91.973c0,1.072-0.377,1.953-1.133,2.773
	c-0.76,0.756-1.64,1.134-2.711,1.134H25.931c-1.072,0-2.017-0.381-2.773-1.134c-0.756-0.82-1.135-1.703-1.135-2.773V3.361
	c0-1.008,0.379-1.954,1.135-2.774c0.757-0.756,1.701-1.133,2.773-1.133h46.773C73.777-0.547,74.657-0.17,75.417,0.587L75.417,0.587z
	 M46.608,93.569c0.756,0.756,1.638,1.133,2.648,1.133c1.133,0,2.018-0.379,2.709-1.133c0.758-0.759,1.135-1.704,1.135-2.774
	c0-0.942-0.379-1.891-1.135-2.711c-0.691-0.756-1.576-1.132-2.709-1.132c-1.01,0-1.893,0.378-2.648,1.132
	c-0.694,0.82-1.073,1.705-1.073,2.711C45.536,91.866,45.915,92.749,46.608,93.569L46.608,93.569z M26.814,11.619v72.618h44.883
	V11.619H26.814z"/>
</svg>
